<svg xmlns="http://www.w3.org/2000/svg" width="800" height="480" viewBox="0 0 800 480">
  <rect width="800" height="480" fill="#111"/>
  <rect x="24" y="24" width="752" height="432" rx="12" fill="#1a1a1a" stroke="#333" stroke-width="1"/>
  <text x="48" y="72" fill="#FF2A2A" font-family="monospace" font-size="13">EMERGENCY HEALTH ALERT SYSTEM</text>
  <rect x="48" y="96" width="220" height="140" rx="8" fill="#161616"/>
  <text x="68" y="130" fill="#888" font-family="monospace" font-size="11">Dataset / EDA</text>
  <rect x="68" y="148" width="60" height="40" rx="4" fill="#FF2A2A" opacity="0.4"/>
  <rect x="138" y="148" width="60" height="60" rx="4" fill="#ff7a45" opacity="0.4"/>
  <rect x="208" y="148" width="40" height="50" rx="4" fill="#444"/>
  <rect x="288" y="96" width="220" height="140" rx="8" fill="#161616"/>
  <text x="308" y="130" fill="#888" font-family="monospace" font-size="11">ML Model</text>
  <circle cx="398" cy="180" r="40" fill="none" stroke="#FF2A2A" stroke-width="3"/>
  <text x="398" y="186" fill="#fff" font-family="sans-serif" font-size="16" text-anchor="middle">Classifier</text>
  <rect x="528" y="96" width="220" height="140" rx="8" fill="#161616"/>
  <text x="548" y="130" fill="#888" font-family="monospace" font-size="11">Alert Output</text>
  <rect x="548" y="150" width="180" height="24" rx="4" fill="#22C55E" opacity="0.3"/>
  <text x="558" y="167" fill="#22C55E" font-family="monospace" font-size="12">HIGH RISK  -  ALERT SENT</text>
  <rect x="48" y="260" width="700" height="160" rx="8" fill="#161616"/>
  <text x="68" y="292" fill="#888" font-family="monospace" font-size="11">Workflow</text>
  <text x="68" y="330" fill="#ccc" font-family="monospace" font-size="13">Dataset -> EDA -> Feature Selection -> Model -> Prediction -> Alert</text>
  <rect x="68" y="360" width="120" height="8" rx="2" fill="#FF2A2A" opacity="0.6"/>
  <rect x="200" y="360" width="120" height="8" rx="2" fill="#ff7a45" opacity="0.5"/>
  <rect x="332" y="360" width="120" height="8" rx="2" fill="#444"/>
  <rect x="464" y="360" width="120" height="8" rx="2" fill="#444"/>
  <rect x="596" y="360" width="120" height="8" rx="2" fill="#22C55E" opacity="0.4"/>
</svg>
